<svg width="80" height="80" viewBox="0 0 80 80" fill="none" xmlns="http://www.w3.org/2000/svg">
<path fill-rule="evenodd" clip-rule="evenodd" d="M40 0C62.0553 0 80 17.9447 80 40C80 51.7091 74.9425 62.2575 66.8989 69.5767L66.9382 69.6102L65.6073 70.7215C65.5343 70.7832 65.4573 70.8397 65.3803 70.8962C65.3176 70.9421 65.2549 70.9882 65.1942 71.0371C64.5847 71.5331 63.9578 72.0073 63.3193 72.4669C63.2665 72.505 63.2138 72.5431 63.1612 72.5812C62.9484 72.7353 62.7364 72.8887 62.5207 73.0356C61.7731 73.5476 61.0036 74.0291 60.2211 74.4902C60.0087 74.6153 59.7964 74.7375 59.5825 74.8582C58.7229 75.3425 57.8458 75.7978 56.9484 76.2196C56.8837 76.2503 56.8186 76.2794 56.7536 76.3085C56.7073 76.3291 56.6612 76.3498 56.6153 76.3709C53.616 77.7469 50.4189 78.7607 47.0778 79.36C46.9994 79.3752 46.9198 79.3893 46.8411 79.4032L46.8058 79.4095C45.7629 79.5884 44.7069 79.7295 43.6378 79.8269C43.5701 79.8327 43.5024 79.8375 43.4347 79.8422C43.3671 79.8469 43.2996 79.8516 43.232 79.8575C42.1644 79.9433 41.0895 80 40 80C38.9004 80 37.8153 79.9433 36.7418 79.8545C36.6764 79.8488 36.6114 79.8441 36.5466 79.8394C36.4801 79.8347 36.4139 79.8299 36.3476 79.824C35.2698 79.7265 34.2051 79.5811 33.152 79.3993C33.0618 79.3833 32.9731 79.3673 32.8844 79.3513C29.4924 78.7389 26.2487 77.7018 23.2102 76.2895C23.176 76.2735 23.1415 76.2582 23.1069 76.2429C23.0724 76.2276 23.0378 76.2124 23.0036 76.1964C22.0713 75.7571 21.1607 75.2785 20.2691 74.7709C20.0902 74.6691 19.9113 74.5673 19.7338 74.4625C18.9193 73.9811 18.1222 73.4734 17.3455 72.9382C17.1055 72.7724 16.8698 72.6022 16.6342 72.432C15.9069 71.9069 15.1927 71.3644 14.5033 70.7927C14.4628 70.7593 14.4207 70.7285 14.3785 70.6976C14.3327 70.6641 14.2868 70.6306 14.2429 70.5935L12.9455 69.4996L12.9833 69.4662C5.00946 62.1498 0 51.6495 0 40C0 17.9447 17.9447 0 40 0ZM40.0001 2.91016C19.5478 2.91016 2.90924 19.5487 2.90924 40.0011C2.90924 50.9422 7.67433 60.7894 15.2365 67.5851C15.6002 67.3247 15.9638 67.092 16.3303 66.8927L27.8314 60.6192C28.8743 60.0491 29.5216 58.9582 29.5216 57.7712V53.5618C28.6256 52.3778 26.2009 48.884 25.0227 44.2687C23.7922 43.2607 23.0736 41.7669 23.0736 40.1654V35.0091C23.0736 33.748 23.5376 32.5247 24.3638 31.5632V24.7749C24.2882 24.0214 24.0205 19.7596 27.1027 16.2454C29.7834 13.1865 34.1223 11.6374 40.0001 11.6374C45.878 11.6374 50.2169 13.1865 52.8976 16.2469C55.9798 19.7611 55.7122 24.02 55.6365 24.7763V31.5647C56.4642 32.5262 56.9267 33.7494 56.9267 35.0105V40.1669C56.9267 42.2396 55.7369 44.0752 53.894 44.9509C52.9616 47.6462 51.6831 50.1509 50.0889 52.4025C49.7776 52.8403 49.4765 53.2389 49.1914 53.5909V57.892C49.1914 59.1269 49.878 60.2382 50.9834 60.7909L63.2991 66.948C63.7398 67.1691 64.1703 67.4338 64.598 67.7291C72.2547 60.9305 77.0911 51.0222 77.0911 40.0011C77.0911 19.5487 60.4525 2.91016 40.0001 2.91016Z" fill="#B4B7BB"/>
</svg>
