<svg width="150" height="150" viewBox="0 0 150 150" fill="none" xmlns="http://www.w3.org/2000/svg">
<path fill-rule="evenodd" clip-rule="evenodd" d="M75 150C33.5786 150 0 116.421 0 75C0 33.5786 33.5786 0 75 0C116.421 0 150 33.5786 150 75C150 116.421 116.421 150 75 150ZM75.9855 56.4586L72.7877 74.9738C72.3855 77.2923 70.3548 78.9863 67.9778 78.9863H53.0191C51.0246 78.9863 49.5097 77.2107 49.8476 75.2656L53.0306 56.8319C53.4509 54.3993 55.5822 52.6205 58.0762 52.6205H72.7136C74.7707 52.6205 76.3317 54.4531 75.9855 56.4586ZM76.3766 39.5834H56.8552C48.6134 39.5834 41.5717 45.4594 40.1821 53.4959L39.3662 58.2192H39.3596L31.3453 104.599C30.6596 108.57 33.7519 112.196 37.8266 112.196H43.3272L46.8118 92.0247H66.5178C76.1805 92.0247 84.4354 85.1361 86.0623 75.7154L89.6228 55.1133C91.0255 46.9953 84.7041 39.5834 76.3766 39.5834ZM98.5109 40.7512H94.0356C94.5219 42.6523 94.8219 45.0328 94.6257 47.7686C94.5301 49.161 94.1428 50.9871 94.1428 50.9871L94.1418 50.9915C93.7321 52.953 93.5578 53.7872 95.9955 56.8387H96.0021L96.0235 56.8681V56.873C96.6582 57.6654 97.4873 58.673 98.3774 59.7507L98.9988 60.5137C99.9151 61.6257 100.844 62.6773 101.72 63.6691C104.109 66.374 106.106 68.6341 106.382 70.4594C106.494 71.1817 106.509 72.2431 106.011 73.3942V73.3974C105.523 74.5338 104.496 75.7371 102.444 76.6925C100.158 77.7613 98.3839 78.2432 97.2154 78.5605C96.6815 78.7055 96.274 78.8162 96.0021 78.9328C95.8043 79.5442 95.3082 81.773 96.9829 85.0257L96.9928 85.0355L97.0541 85.1517L97.0541 85.1518C97.1829 85.3964 97.3013 85.6213 97.4296 85.8328C98.0279 86.9154 98.7812 89.0838 96.1076 91.0876C95.4021 91.6159 94.5615 91.7822 93.7159 91.9306C94.6834 92.2159 96.2626 92.7882 96.4142 94.7806C96.5738 96.8663 95.6107 97.846 94.6813 98.7914C94.0269 99.4571 93.3892 100.106 93.1719 101.112C92.855 102.578 93.4902 103.771 94.1508 105.012C94.5144 105.696 94.8857 106.393 95.1104 107.159C95.7681 109.393 95.4153 111.028 95.4153 111.028C103.86 107.55 110.25 99.9866 111.871 90.6018L116.781 62.1849C118.716 50.9871 109.995 40.7512 98.5109 40.7512Z" fill="white"/>
</svg>
